<svg width="95" height="102" viewBox="0 0 95 102" fill="none" xmlns="http://www.w3.org/2000/svg">
<path d="M12.4795 34.4834L45.6953 0H59.7119L31.4473 30.0244L38.1914 38.3828C40.0337 37.24 42.0056 36.2549 44.1094 35.4316C48.5254 33.7036 53.3258 32.8398 58.5098 32.8398C63.7578 32.8398 68.5582 33.7036 72.9102 35.4316C77.3259 37.1596 81.1658 39.5917 84.4297 42.7275C87.6937 45.7995 90.2217 49.4479 92.0137 53.6719C93.8057 57.8319 94.7021 62.4084 94.7021 67.4004C94.7021 72.3921 93.8055 76.9998 92.0137 81.2236C90.2217 85.4476 87.6937 89.096 84.4297 92.168C81.1658 95.2399 77.326 97.6402 72.9102 99.3682C68.5582 101.096 63.7895 101.96 58.6055 101.96C53.3576 101.96 48.5253 101.096 44.1094 99.3682C39.6935 97.6402 35.8538 95.2399 32.5898 92.168C29.3258 89.032 26.7979 85.3836 25.0059 81.2236C23.214 76.9998 22.3174 72.3921 22.3174 67.4004C22.3174 62.4084 23.2139 57.8319 25.0059 53.6719C26.1434 50.9905 27.5778 48.5414 29.3086 46.3242L23.1826 39.0322L12.4795 49.9844V67.2002H0V0H12.4795V34.4834ZM58.5098 43.7842C55.1178 43.7842 51.9816 44.3597 49.1016 45.5117C47.8231 46.0347 46.6114 46.6644 45.4648 47.3984L61.4395 67.2002H46.8477L37.5176 56.0947C37.1962 56.7076 36.8975 57.3399 36.6221 57.9922C35.4701 60.8082 34.8936 63.9444 34.8936 67.4004C34.8936 70.7922 35.4702 73.9278 36.6221 76.8076C37.838 79.6874 39.5015 82.2157 41.6133 84.3916C43.7253 86.5036 46.2216 88.1361 49.1016 89.2881C51.9816 90.4401 55.1178 91.0156 58.5098 91.0156C61.9018 91.0156 65.038 90.4401 67.918 89.2881C70.7979 88.1361 73.2933 86.5035 75.4053 84.3916C77.5172 82.2157 79.1498 79.7202 80.3018 76.9043C81.5177 74.0244 82.1259 70.8562 82.126 67.4004C82.126 63.9445 81.5177 60.8081 80.3018 57.9922C79.1498 55.1122 77.5173 52.6159 75.4053 50.5039C73.2934 48.3281 70.7978 46.6637 67.918 45.5117C65.038 44.3597 61.9018 43.7842 58.5098 43.7842Z" fill="url(#paint0_linear_27_72)"/>
<defs>
<linearGradient id="paint0_linear_27_72" x1="51.8232" y1="0" x2="51.8232" y2="110.16" gradientUnits="userSpaceOnUse">
<stop stop-color="white"/>
<stop offset="1" stop-color="#498F80"/>
</linearGradient>
</defs>
</svg>
